REM DIRINDEX 1\2,1\3,1\4,1\5
REM DIRNAME "folder01","folder02","folder03","folder04","folder05"
TITLE ""
FILE "1Q_t_1201-1209.mp3" MP3
  TRACK 01 AUDIO
    TITLE "0:"
    INDEX 01 00:00:00
  TRACK 02 AUDIO
    TITLE "2:cjc172_4570"
    INDEX 01 00:00:12
  TRACK 03 AUDIO
    TITLE "0:"
    INDEX 01 00:01:63
  TRACK 04 AUDIO
    TITLE "2:cjc172_4571"
    INDEX 01 00:02:33
  TRACK 05 AUDIO
    TITLE "0:"
    INDEX 01 00:03:40
  TRACK 06 AUDIO
    TITLE "3:cjc172_4572"
    INDEX 01 00:04:08
  TRACK 07 AUDIO
    TITLE "0:"
    INDEX 01 00:05:13
  TRACK 08 AUDIO
    TITLE "4:cjc172_4573"
    INDEX 01 00:05:21
  TRACK 09 AUDIO
    TITLE "0:"
    INDEX 01 00:07:38
  TRACK 10 AUDIO
    TITLE "5:cjc172_4574"
    INDEX 01 00:07:44
  TRACK 11 AUDIO
    TITLE "0:"
    INDEX 01 00:14:26
  TRACK 12 AUDIO
    TITLE "3:cjc172_4575"
    INDEX 01 00:14:71
  TRACK 13 AUDIO
    TITLE "0:"
    INDEX 01 00:15:67
  TRACK 14 AUDIO
    TITLE "4:cjc172_4576"
    INDEX 01 00:15:75
  TRACK 15 AUDIO
    TITLE "0:"
    INDEX 01 00:18:65
  TRACK 16 AUDIO
    TITLE "5:cjc172_4577"
    INDEX 01 00:18:71
  TRACK 17 AUDIO
    TITLE "0:"
    INDEX 01 00:24:50
  TRACK 18 AUDIO
    TITLE "3:cjc172_4578"
    INDEX 01 00:25:22
  TRACK 19 AUDIO
    TITLE "0:"
    INDEX 01 00:26:47
  TRACK 20 AUDIO
    TITLE "4:cjc172_4579"
    INDEX 01 00:26:55
  TRACK 21 AUDIO
    TITLE "0:"
    INDEX 01 00:30:43
  TRACK 22 AUDIO
    TITLE "5:cjc172_4580"
    INDEX 01 00:30:49
  TRACK 23 AUDIO
    TITLE "0:"
    INDEX 01 00:35:64
  TRACK 24 AUDIO
    TITLE "3:cjc172_4581"
    INDEX 01 00:36:34
  TRACK 25 AUDIO
    TITLE "0:"
    INDEX 01 00:37:45
  TRACK 26 AUDIO
    TITLE "4:cjc172_4582"
    INDEX 01 00:37:53
  TRACK 27 AUDIO
    TITLE "0:"
    INDEX 01 00:40:73
  TRACK 28 AUDIO
    TITLE "5:cjc172_4583"
    INDEX 01 00:41:03
  TRACK 29 AUDIO
    TITLE "0:"
    INDEX 01 00:46:50
  TRACK 30 AUDIO
    TITLE "3:cjc172_4584"
    INDEX 01 00:47:18
  TRACK 31 AUDIO
    TITLE "0:"
    INDEX 01 00:48:37
  TRACK 32 AUDIO
    TITLE "4:cjc172_4585"
    INDEX 01 00:48:43
  TRACK 33 AUDIO
    TITLE "0:"
    INDEX 01 00:51:06
  TRACK 34 AUDIO
    TITLE "5:cjc172_4586"
    INDEX 01 00:51:12
  TRACK 35 AUDIO
    TITLE "0:"
    INDEX 01 00:56:25
  TRACK 36 AUDIO
    TITLE "3:cjc172_4587"
    INDEX 01 00:56:66
  TRACK 37 AUDIO
    TITLE "0:"
    INDEX 01 00:58:10
  TRACK 38 AUDIO
    TITLE "4:cjc172_4588"
    INDEX 01 00:58:18
  TRACK 39 AUDIO
    TITLE "0:"
    INDEX 01 01:01:30
  TRACK 40 AUDIO
    TITLE "5:cjc172_4589"
    INDEX 01 01:01:35
  TRACK 41 AUDIO
    TITLE "0:"
    INDEX 01 01:07:58
  TRACK 42 AUDIO
    TITLE "3:cjc172_4590"
    INDEX 01 01:08:30
  TRACK 43 AUDIO
    TITLE "0:"
    INDEX 01 01:09:49
  TRACK 44 AUDIO
    TITLE "4:cjc172_4591"
    INDEX 01 01:09:57
  TRACK 45 AUDIO
    TITLE "0:"
    INDEX 01 01:12:65
  TRACK 46 AUDIO
    TITLE "5:cjc172_4592"
    INDEX 01 01:12:72
  TRACK 47 AUDIO
    TITLE "0:"
    INDEX 01 01:19:27
  TRACK 48 AUDIO
    TITLE "3:cjc172_4593"
    INDEX 01 01:19:73
  TRACK 49 AUDIO
    TITLE "0:"
    INDEX 01 01:20:72
  TRACK 50 AUDIO
    TITLE "4:cjc172_4594"
    INDEX 01 01:21:07
  TRACK 51 AUDIO
    TITLE "0:"
    INDEX 01 01:24:52
  TRACK 52 AUDIO
    TITLE "5:cjc172_4595"
    INDEX 01 01:24:58
  TRACK 53 AUDIO
    TITLE "0:"
    INDEX 01 01:31:37
  TRACK 54 AUDIO
    TITLE "3:cjc172_4596"
    INDEX 01 01:32:07
  TRACK 55 AUDIO
    TITLE "0:"
    INDEX 01 01:33:22
  TRACK 56 AUDIO
    TITLE "4:cjc172_4597"
    INDEX 01 01:33:30
  TRACK 57 AUDIO
    TITLE "0:"
    INDEX 01 01:36:24
  TRACK 58 AUDIO
    TITLE "5:cjc172_4598"
    INDEX 01 01:36:32
  TRACK 59 AUDIO
    TITLE "0:"
    INDEX 01 01:41:66
